<svg version="1.1" xmlns="http://www.w3.org/2000/svg" xmlns:xlink="http://www.w3.org/1999/xlink" width="35.32317" height="128.46658" viewBox="0,0,35.32317,128.46658"><g transform="translate(-261.62269,-123.906)"><g data-paper-data="{&quot;isPaintingLayer&quot;:true}" fill-rule="nonzero" stroke="none" stroke-width="1" stroke-linecap="butt" stroke-linejoin="miter" stroke-miterlimit="10" stroke-dasharray="" stroke-dashoffset="0" style="mix-blend-mode: normal"><path d="M291.077,228.88l-1.31,-0.066c-6.161,-8.196 -4.26,-20.457 -3.408,-30.095c0.59,-5.967 0.327,-11.934 -0.787,-17.835c-0.327,-1.573 -1.114,-11.802 5.964,-12.523c7.078,-0.721 5.178,11.999 5.178,14.949c0,5.442 -0.132,10.885 -0.328,16.327c-0.328,9.441 2.883,22.489 -5.309,29.243zM290.029,182.064c-1.245,1.115 -1.18,6.623 -1.311,8.262c-0.262,3.344 -0.262,6.688 -0.065,10.032c0.262,3.606 0.524,7.147 0.524,10.753c0,2.885 -0.524,6.753 0.065,9.507l1.18,1.246c0.524,0.262 1.114,0.262 1.638,0.131c2.491,-6.688 1.311,-13.31 1.377,-20.26c0,-3.672 -0.066,-7.278 -0.066,-10.95c0,-2.36 1.049,-8.196 -2.425,-8.917z" fill="#c8bea0"/><g fill="#c8bea0"><path d="M284.72,235.568c-0.327,-1.508 0.197,-3.082 1.377,-4.065c0.524,-0.394 3.604,-1.902 5.111,-1.115c2.687,1.311 3.933,5.77 2.098,7.278c-1.049,0.852 -3.081,1.705 -4.719,1.18c-1.638,-0.524 -3.015,-2.491 -3.867,-3.278z"/><path d="M289.832,240.158c0,0.655 0.066,1.245 0.066,1.835c0.065,1.64 0.065,3.213 0.131,4.852c0,1.443 -0.131,2.82 -0.524,4.197c-0.328,1.18 -0.918,1.508 -2.229,1.246c-0.327,-0.263 -0.327,-0.656 -0.327,-0.984c-0.131,-1.77 0,-3.475 0.393,-5.18c0.262,-1.049 0.459,-2.164 0.721,-3.278c0.131,-0.59 0.327,-1.115 0.524,-1.639c0.131,-0.591 0.655,-0.984 1.245,-1.049z"/><path d="M292.323,250.714c-0.852,-1.705 -1.246,-8.458 -0.656,-10.819c0.131,-0.131 0.328,-0.196 0.525,-0.262c0.196,-0.066 0.458,-0.131 0.655,-0.131c0.131,0.262 0.262,0.524 0.328,0.787c0.065,0.393 0.131,0.786 0.196,1.245c0.131,1.64 0.328,3.213 0.393,4.852c0,1.05 -0.131,2.099 -0.327,3.082c-0.066,0.59 -0.459,1.115 -1.114,1.246z"/><path d="M284.982,237.076l1.18,0.787c0.066,1.442 0,2.95 -0.262,4.393c-0.262,1.508 -0.459,3.016 -0.59,4.524c-0.065,1.049 -0.524,2.032 -1.311,2.688c-0.196,-0.262 -0.458,-0.393 -0.589,-0.59c-0.131,-0.328 -0.131,-0.721 -0.131,-1.115c0.262,-3.475 0.917,-6.884 1.441,-10.359c0.066,0 0.131,-0.066 0.262,-0.328z"/><path d="M280.133,241.141c-0.459,-0.393 -0.59,-1.049 -0.459,-1.639c0.197,-0.656 0.328,-1.377 0.59,-2.033c0.262,-0.787 0.655,-1.508 0.917,-2.295c0.394,-0.786 0.852,-1.508 1.442,-2.163c0.262,-0.263 0.59,-0.459 0.918,-0.656c0.131,0.262 0.262,0.524 0.262,0.852c-0.066,2.295 -0.656,4.525 -1.573,6.623c-0.262,0.918 -1.18,1.442 -2.097,1.311z"/></g><g><path d="M275.021,128.299c1.442,-0.262 4.981,2.688 6.291,3.868c4.719,10.557 9.044,22.425 9.634,24.785c1.049,4 4.457,16.458 0.787,19.67c-2.097,-0.262 -2.622,-4.589 -2.884,-6.294c-2.425,-15.474 -12.124,-35.8 -12.976,-36.653c-0.852,-0.852 -2.294,-1.114 -3.146,-2.098c-0.59,-1.639 1.245,-2.557 2.294,-3.278z" fill="#aaa082"/><path d="M294.027,173.278c0.852,2.295 -0.132,4.787 -2.098,5.639c-1.704,0.721 -3.735,-0.065 -4.456,-1.77c0,-0.066 -0.066,-0.131 -0.066,-0.131c-0.327,-1.18 -0.131,-2.426 0.656,-3.344c0.196,-0.262 0.393,-0.459 0.655,-0.656c0.328,-0.262 0.721,-0.459 1.114,-0.59c1.442,-0.197 2.949,0.131 4.195,0.852z" fill="#aaa082"/><path d="M273.12,126.856c0.131,1.377 -1.704,2.885 -3.997,3.607c-2.294,0.721 -8.324,-0.459 -7.406,-4.131c2.556,-1.836 6.16,-2.164 6.423,-2.426c2.49,0.197 4.849,1.508 4.98,2.95z" fill="#dcd2b4"/></g></g></g></svg>