<svg version="1.1" xmlns="http://www.w3.org/2000/svg" xmlns:xlink="http://www.w3.org/1999/xlink" width="35.11019" height="125.66033" viewBox="0,0,35.11019,125.66033"><g transform="translate(-181.72879,-122.23467)"><g data-paper-data="{&quot;isPaintingLayer&quot;:true}" fill-rule="nonzero" stroke="none" stroke-width="1" stroke-linecap="butt" stroke-linejoin="miter" stroke-miterlimit="10" stroke-dasharray="" stroke-dashoffset="0" style="mix-blend-mode: normal"><path d="M186.677,222.716c-3.408,-3.409 -2.097,-8.064 -1.769,-12.523c0.393,-5.049 1.311,-9.966 2.752,-14.818c1.311,-4.328 2.491,-8.655 3.474,-13.048c0.459,-2.23 1.18,-4.59 0.852,-6.819c-0.328,-2.426 -1.901,-10.819 6.16,-11.016c8.061,-0.196 1.114,14.36 0.656,15.999c-1.508,5.18 -2.163,10.884 -3.277,16.195c-1.114,5.18 -1.049,10.425 -1.966,15.605c-0.983,5.049 -1.114,9.704 -6.882,10.425zM196.049,174.393c-2.294,0.525 -3.604,7.475 -4.129,9.442c-0.917,3.672 -1.573,7.475 -2.228,11.277c-0.59,3.213 -1.376,6.361 -2.032,9.508c-0.589,2.754 -2.621,8.327 -0.72,10.884l2.228,0.59c2.097,-2.491 1.835,-7.081 2.49,-10.097c0.787,-3.672 1.77,-7.344 2.556,-11.016c0.655,-3.081 5.178,-19.473 1.835,-20.588z" fill="#dcd2b4"/><g><path d="M183.073,229.732c0.065,-1.049 0.328,-2.032 0.852,-2.95c0.655,-0.984 1.638,-1.705 2.752,-1.967c0.918,-0.263 1.77,0.131 2.622,0.59c0.262,0.196 0.459,0.459 0.524,0.787c0.197,0.852 0.328,1.704 0.393,2.557c-0.131,1.573 -1.114,2.95 -2.621,3.475c-0.131,0.065 -0.262,0.065 -0.393,0.065c-1.114,-0.065 -2.229,-0.327 -3.277,-0.721c-0.656,-0.262 -0.918,-0.852 -0.852,-1.836z" fill="#aaa082"/><path d="M190.872,246.452l-1.508,-0.197c-0.393,-0.393 -0.655,-0.918 -0.655,-1.508c-0.262,-2.36 -0.524,-4.721 -0.721,-7.015c-0.131,-1.05 -0.131,-2.099 0,-3.082c0,-0.525 0.197,-0.984 0.59,-1.312c0.393,-0.131 0.655,0.132 0.852,0.394c0.655,0.852 1.049,1.901 1.18,2.95c0.131,1.443 0.524,2.885 0.655,4.262c0.066,1.312 0.066,2.557 0,3.869c-0.131,0.59 -0.197,1.114 -0.393,1.639z" fill="#c8bea0"/><path d="M185.563,247.895c-0.655,-0.394 -0.983,-1.05 -0.983,-1.771c-0.065,-0.918 -0.131,-1.836 -0.196,-2.754c-0.197,-1.967 -0.263,-3.868 -0.197,-5.835c0,-0.853 0.131,-1.771 0.197,-2.623c0,-0.59 0.393,-1.049 0.983,-1.18c0.065,0.131 0.196,0.262 0.196,0.459c0.066,0.59 0.262,1.114 0.525,1.639c0.131,0.197 0.196,0.459 0.196,0.721c0.197,1.967 0.656,3.934 0.656,5.967c0,1.246 -0.132,2.492 -0.394,3.672c-0.065,0.655 -0.458,1.311 -0.983,1.705z" fill="#c8bea0"/><path d="M182.68,245.075c-1.114,-2.164 -1.311,-9.507 -0.262,-11.802c0.589,0.393 0.917,1.049 0.917,1.77c0,1.443 0,2.885 0,4.328c0,0.852 0,1.77 0.066,2.622c0.131,1.115 -0.132,2.23 -0.721,3.082z" fill="#c8bea0"/><path d="M195.328,236.027c-0.721,-0.197 -1.31,-0.722 -1.573,-1.443c-0.196,-0.328 -0.327,-0.655 -0.393,-1.049c-0.524,-2.032 -1.245,-4.065 -2.097,-5.967c-0.066,-0.196 -0.131,-0.393 -0.131,-0.524c0.262,-0.066 0.524,-0.066 0.721,-0.066c0.917,0.132 1.704,0.656 2.228,1.508c0.983,1.705 2.032,3.41 2.49,5.377c0.197,1.246 0.066,1.574 -1.245,2.164z" fill="#c8bea0"/></g><g><path d="M199.392,168.099c0.72,1.704 0,3.737 -1.704,4.589c-1.377,0.59 -3.015,0 -3.605,-1.442c0,-0.066 -0.065,-0.066 -0.065,-0.131c-0.263,-0.918 -0.066,-1.967 0.524,-2.754c0.131,-0.197 0.327,-0.394 0.524,-0.525c0.262,-0.196 0.59,-0.328 0.918,-0.459c1.179,-0.131 2.359,0.131 3.408,0.722z" fill="#c8bea0"/><path d="M197.098,170l-0.787,-0.197c-1.9,-5.442 0.852,-12.785 2.032,-18.031c0.852,-3.868 1.573,-7.737 2.49,-11.605c0.656,-2.82 1.442,-7.016 3.408,-9.442c0.525,-0.656 3.146,-2.492 3.146,-0.262c-0.066,7.409 -5.308,30.489 -10.289,39.537z" fill="#c8bea0"/><path d="M211.712,129.02c-0.262,-0.262 -3.866,-0.787 -6.357,-2.688c-0.721,-3.737 5.309,-4.655 7.603,-3.803c2.293,0.852 4.063,2.426 3.866,3.737c-0.196,1.312 -2.687,2.689 -5.112,2.754z" fill="#dcd2b4"/></g></g></g></svg>