<svg version="1.1" xmlns="http://www.w3.org/2000/svg" xmlns:xlink="http://www.w3.org/1999/xlink" width="14.46364" height="83.76809" viewBox="0,0,14.46364,83.76809"><g transform="translate(-256.49436,-175.11873)"><g data-paper-data="{&quot;isPaintingLayer&quot;:true}" fill-rule="nonzero" stroke="none" stroke-width="1" stroke-linecap="butt" stroke-linejoin="miter" stroke-miterlimit="10" stroke-dasharray="" stroke-dashoffset="0" style="mix-blend-mode: normal"><g><path d="M262.634,210.652c-2.687,0.197 -3.473,0.197 -4.98,-4c-1.18,-3.278 -0.131,-8.261 0.458,-11.605c0.59,-3.475 1.377,-7.081 -0.458,-10.229c-1.901,-3.409 -1.311,-6.229 0.655,-8.72c1.049,-1.312 6.226,-1.836 9.044,1.901c2.622,3.41 2.949,10.885 2.753,14.36c-0.197,5.442 -4.719,18.096 -7.472,18.293z" fill="#aaa082"/><path d="M264.994,179.114c1.245,1.77 0.065,3.409 -1.508,4.131c-1.376,0.59 -3.014,0 -3.604,-1.443c0,-0.065 -0.066,-0.065 -0.066,-0.131c-0.262,-0.918 -0.065,-1.967 0.525,-2.754c0.131,-0.196 0.327,-0.393 0.524,-0.524c0.262,-0.197 0.59,-0.328 0.917,-0.459c0.852,-0.197 1.967,-0.656 3.212,1.18z" fill="#dcd2b4"/></g><g fill="#aaa082"><path d="M263.451,257.123c0.267,-4.643 2.233,-37.628 4.426,-38.603c1.049,0.459 2.098,0.984 2.36,3.147c1.12,9.264 -4.128,31.218 -5.19,35.521c2.656,0.105 5.648,0.214 5.648,0.214l0.263,1.18c0,0 -7.799,0.525 -8.389,0.197c-1.245,0 -2.425,-0.197 -3.605,-0.656l-0.524,-3.278c0.983,-0.328 1.901,-0.656 2.884,-0.918c0.065,0.065 -0.393,3.278 -0.262,3.081c0.197,0.02 1.152,0.064 2.389,0.115z"/><path d="M260.079,218.651l0.786,0.394c1.573,5.901 0.917,12.785 0.917,18.883c0,5.836 0.066,19.343 0.066,19.343l-1.901,0.393l-1.507,-2.819c0.066,0 -3.867,-33.243 1.639,-36.194z"/><path d="M268.074,212.816c0.918,2.36 -0.066,4.655 -2.228,5.507c-1.77,0.722 -4.26,0.066 -4.981,-1.967c-0.393,-1.18 -0.131,-2.491 0.721,-3.475c0.196,-0.262 0.459,-0.459 0.721,-0.655c0.393,-0.263 0.786,-0.459 1.245,-0.59c1.18,-0.197 3.473,-0.525 4.522,1.18z"/><path d="M259.62,211.439c0.655,0.262 0.983,0.983 0.721,1.639c0,0 0,0.066 -0.066,0.066c-0.262,0.59 -0.917,0.918 -1.507,0.655c-0.328,-0.196 -0.59,-0.524 -0.59,-0.918c0,-0.131 0,-0.196 0,-0.328c0,-0.131 0.066,-0.262 0.131,-0.393c0.328,-0.262 0.721,-0.852 1.311,-0.721z"/></g></g></g></svg>