<svg version="1.1" xmlns="http://www.w3.org/2000/svg" xmlns:xlink="http://www.w3.org/1999/xlink" width="17.17085" height="83.90881" viewBox="0,0,17.17085,83.90881"><g transform="translate(-214.89967,-173.30517)"><g data-paper-data="{&quot;isPaintingLayer&quot;:true}" fill-rule="nonzero" stroke="none" stroke-width="1" stroke-linecap="butt" stroke-linejoin="miter" stroke-miterlimit="10" stroke-dasharray="" stroke-dashoffset="0" style="mix-blend-mode: normal"><g><path d="M218.463,174.852c2.752,-2.295 7.471,-1.967 10.092,0.525c2.229,2.163 1.573,7.671 -1.31,8.523c-3.212,1.64 -2.229,4.066 -1.639,7.082c0.656,3.213 0.656,6.491 1.049,9.769c0.262,2.492 0.852,5.639 -0.131,8.065c-0.656,1.705 -2.097,2.361 -3.67,2.426c-0.394,0 -2.884,-1.115 -4.26,-3.934c-2.228,-4.327 -3.605,-11.343 -3.67,-14.359c-0.197,-6.688 0.786,-15.802 3.539,-18.097z" fill="#c8bea0"/><path d="M226.131,177.54c0.655,1.902 0.065,3.607 -1.508,4.262c-1.376,0.59 -3.015,0 -3.604,-1.442c0,-0.066 -0.066,-0.066 -0.066,-0.131c-0.262,-0.918 -0.065,-1.967 0.524,-2.754c0.131,-0.197 0.328,-0.394 0.525,-0.525c0.262,-0.197 0.59,-0.328 0.917,-0.459c1.049,-0.262 2.753,0.066 3.212,1.049z" fill="#f0e6d2"/></g><g fill="#c8bea0"><path d="M218.528,222.585c0.262,-0.721 0.393,-1.311 0.983,-1.573c0.656,-0.066 1.114,0.328 1.639,0.655c4.391,10.557 5.505,23.08 7.668,34.227h-1.246c-2.49,-4.197 -3.408,-8.262 -4.522,-12.917c-1.507,-6.819 -3.539,-13.376 -4.522,-20.392z"/><path d="M229.211,255.435c0,0 2.556,-0.918 2.49,-1.049c0.393,0.655 0.459,1.442 0.262,2.163c-0.196,0.459 -1.573,0.591 -3.408,0.591c-1.573,0 -4.391,0.327 -5.832,-0.394c0,-0.131 -0.066,-0.328 -0.131,-0.524c0.589,-0.59 1.966,-0.459 2.752,-0.525z"/><path d="M227.507,220.684c1.376,-0.394 1.769,6.032 2.228,8.917c0.459,3.344 0.918,6.688 1.18,10.032c0.327,3.606 0.852,14.753 0.852,14.753l-0.918,1.901l-1.507,-0.131l-3.015,-31.145c-0.065,0 -0.196,-3.934 1.18,-4.327z"/><path d="M218.921,217.537c0,-0.197 -0.065,-0.525 -0.131,-0.787c-0.131,-2.426 0.656,-3.344 3.212,-4c1.179,-0.328 2.359,-0.065 3.342,0.656c1.966,1.705 0.59,4.917 -1.638,5.442l-1.704,0.459c-1.18,-0.197 -2.36,-0.525 -3.081,-1.77z"/><path d="M227.441,211.373c0.197,0.656 -0.262,1.377 -0.917,1.508h-0.066c-0.655,0.131 -1.245,-0.262 -1.376,-0.918c-0.066,-0.393 0.131,-0.786 0.393,-0.983c0.066,-0.066 0.197,-0.131 0.262,-0.131c0.131,-0.066 0.262,-0.066 0.394,-0.066c0.393,0 1.114,0.066 1.31,0.59z"/></g></g></g></svg>