<svg version="1.1" xmlns="http://www.w3.org/2000/svg" xmlns:xlink="http://www.w3.org/1999/xlink" width="60.03895" height="60.71707" viewBox="0,0,60.03895,60.71707"><g transform="translate(-211.3602,-126.19323)"><g data-paper-data="{&quot;isPaintingLayer&quot;:true}" fill-rule="nonzero" stroke="none" stroke-width="1" stroke-linecap="butt" stroke-linejoin="miter" stroke-miterlimit="10" stroke-dasharray="" stroke-dashoffset="0" style="mix-blend-mode: normal"><path d="M255.163,182.72c-0.262,4.655 -6.684,4 -10.092,4.131c-3.605,0.131 -8.782,0.262 -11.731,-2.164c-3.408,-2.754 -0.721,-7.606 -3.343,-10.687c-3.08,-3.541 -7.93,-0.984 -11.6,-1.836c-0.459,-5.967 14.484,-3.016 17.63,-2.885c6.946,0.196 13.828,-0.656 20.709,-1.443c2.556,-0.328 5.964,-1.114 8.454,-0.524c2.491,0.59 4.457,3.999 1.311,5.442c-1.9,0.852 -5.308,-0.918 -7.602,-0.459c-3.867,0.721 -3.998,3.213 -3.736,10.425zM236.42,174.459c-0.393,1.18 0,5.442 1.704,6.884c0.983,0.853 2.949,0.853 4.718,1.115c3.605,0.524 5.964,-0.066 6.685,-3.016c0.459,-1.967 0.262,-2.623 0.262,-4.852c0,-2.23 -2.359,-1.967 -3.211,-1.639c-0.852,0.327 -0.066,1.704 -0.918,2.36c-0.655,0.459 -3.67,0.984 -4.522,0.131c-0.852,-0.852 0,-1.77 -1.638,-2.098c-1.638,-0.328 -2.687,-0.066 -3.08,1.115z" fill="#dcd2b4"/><g><path d="M236.42,168.295c0.131,-1.049 0.459,-1.705 1.048,-1.836c0.525,-0.196 1.049,-0.327 1.639,-0.393c1.573,-0.197 3.211,0.066 4.784,0.066c1.442,-0.066 2.884,0 4.391,0h0.721c0.852,1.376 0.262,3.475 -0.524,3.999c-0.197,0.066 -0.328,0.197 -0.525,0.262c-0.983,0.328 -2.031,0.459 -3.014,0.394c-1.835,0 -3.671,-0.066 -5.506,-0.197c-0.589,0 -1.179,-0.131 -1.769,-0.328c-0.655,-0.328 -1.114,-0.852 -1.245,-1.967z" fill="#dcd2b4"/><path d="M235.109,128.496c0.131,-1.049 0.459,-1.705 1.049,-1.836c0.524,-0.197 1.048,-0.328 1.638,-0.394c1.573,-0.196 3.211,0.066 4.784,0.066c1.442,-0.066 2.884,0 4.391,0c0.262,0 0.524,0 0.721,0c0.852,1.377 0.262,3.475 -0.524,4c-0.197,0.065 -0.328,0.196 -0.524,0.262c-0.984,0.328 -2.032,0.459 -3.015,0.393c-1.835,0 -3.67,-0.065 -5.571,-0.197c-0.59,0 -1.179,-0.131 -1.769,-0.327c-0.59,-0.263 -1.049,-0.787 -1.18,-1.967z" fill="#dcd2b4"/><path d="M243.039,133.741c0.852,9.114 1.442,18.818 0.917,27.801c-0.589,1.246 -1.114,1.508 -1.9,1.049c-0.787,-1.967 -0.524,-4.655 -0.524,-6.885c0,-2.819 -0.197,-5.639 -0.263,-8.458c-0.196,-4.459 -0.131,-8.983 0.132,-13.507z" fill="#c8bea0"/><path d="M237.993,162.001c0.262,-3.672 6.422,-2.164 8.978,-2.033c2.687,6.229 -8.585,5.901 -8.978,2.033z" fill="#c8bea0"/><path d="M238.779,154.723c0.262,-3.672 5.636,-2.164 7.865,-2.033c2.424,6.295 -7.472,5.901 -7.865,2.033z" fill="#c8bea0"/><path d="M239.369,148.166c0.262,-3.672 5.243,-4 6.554,-1.246c2.031,4.328 -6.161,5.114 -6.554,1.246z" fill="#c8bea0"/><path d="M238.582,141.216c0.263,-3.672 5.243,-4 6.554,-1.246c2.032,4.393 -6.226,5.18 -6.554,1.246z" fill="#c8bea0"/><path d="M238.976,135.052c0.196,-2.95 4.26,-3.212 5.308,-0.983c1.639,3.541 -4.981,4.196 -5.308,0.983z" fill="#c8bea0"/><path d="M244.219,161.607c0.131,0.656 -0.263,1.377 -0.983,1.508h-0.066c-0.655,0.132 -1.245,-0.327 -1.376,-0.918c-0.066,-0.393 0.131,-0.786 0.459,-0.983c0.065,-0.066 0.196,-0.131 0.262,-0.131c0.131,-0.066 0.262,-0.066 0.393,-0.066c0.393,-0.065 1.114,0 1.311,0.59z" fill="#dcd2b4"/><path d="M244.153,154.395c0.131,0.656 -0.262,1.377 -0.983,1.508h-0.065c-0.656,0.131 -1.246,-0.328 -1.377,-0.918c-0.065,-0.393 0.131,-0.787 0.459,-0.984c0.066,-0.065 0.197,-0.131 0.262,-0.131c0.131,-0.065 0.262,-0.065 0.393,-0.065c0.394,-0.066 1.114,0 1.311,0.59z" fill="#dcd2b4"/><path d="M244.022,147.51c0.131,0.656 -0.262,1.377 -0.983,1.508h-0.066c-0.655,0.131 -1.245,-0.328 -1.376,-0.918c0,-0.393 0.131,-0.786 0.459,-0.983c0.065,-0.066 0.197,-0.131 0.262,-0.131c0.131,-0.066 0.262,-0.066 0.393,-0.066c0.459,-0.065 1.18,0 1.311,0.59z" fill="#dcd2b4"/><path d="M243.498,140.56c0.131,0.656 -0.262,1.377 -0.983,1.508h-0.066c-0.655,0.131 -1.245,-0.328 -1.376,-0.918c-0.066,-0.393 0.131,-0.787 0.459,-0.983c0.065,-0.066 0.196,-0.131 0.262,-0.131c0.131,-0.066 0.262,-0.066 0.393,-0.066c0.393,-0.066 1.114,0 1.311,0.59z" fill="#dcd2b4"/><path d="M243.17,134.528c0.131,0.656 -0.262,1.377 -0.983,1.508h-0.066c-0.655,0.131 -1.245,-0.328 -1.376,-0.918c-0.065,-0.393 0.131,-0.787 0.459,-0.984c0.065,-0.065 0.197,-0.131 0.262,-0.131c0.131,-0.065 0.262,-0.065 0.393,-0.065c0.394,-0.066 1.18,0 1.311,0.59z" fill="#dcd2b4"/></g><g><path d="M223.05,134.397l2.753,22.555l-4.85,1.246c-5.964,-0.984 -7.471,-24.719 -7.471,-24.719z" fill="#c8bea0"/><path d="M269.057,134.593c3.342,6.426 -2.621,23.605 -2.621,23.605l-6.357,-2.754l-0.394,-19.933z" fill="#aaa082"/><path d="M211.516,134.921c-0.328,-1.311 -0.131,-2.688 0.524,-3.868c2.228,-2.295 9.831,-0.394 12.518,-0.131c4.063,0.327 8.126,0.852 12.189,1.639c0.394,0.393 0.525,0.983 0.328,1.508c-3.015,1.967 -8.257,1.573 -11.796,1.77c-3.802,0.197 -10.617,1.771 -13.763,-0.918z" fill="#dcd2b4"/><path d="M212.958,143.248c-0.59,-1.311 -0.918,-2.491 -0.263,-3.803c6.947,-1.377 15.598,-2.098 22.676,-1.377c1.049,1.312 1.114,1.509 1.049,2.689c-6.882,3.475 -16.122,4.983 -23.462,2.491z" fill="#dcd2b4"/><path d="M215.71,149.543c4.129,-1.115 8.258,-1.902 12.518,-2.426c2.162,-0.328 7.536,-2.623 9.371,-1.049c0.328,2.557 -11.731,5.835 -13.5,6.425c-1.77,0.591 -5.571,1.771 -7.406,1.181c-2.162,-0.722 -1.442,-2.23 -0.983,-4.131z" fill="#dcd2b4"/><path d="M218.856,158.198c3.015,-1.836 6.881,-2.492 10.224,-3.738c2.883,-1.049 5.964,-2.885 9.109,-2.753c-1.245,3.212 -18.284,11.54 -19.333,6.491z" fill="#dcd2b4"/><path d="M216.169,142.658c1.638,5.574 3.473,11.081 5.636,16.458l-2.556,-0.328c-5.833,-4.131 -7.799,-24.457 -7.799,-24.457l3.212,-1.967c0.196,3.475 0.72,6.885 1.507,10.294z" fill="#dcd2b4"/><path d="M248.479,142.134l-0.721,-1.312c0.131,-0.459 0.327,-0.918 0.524,-1.377c2.425,-1.901 9.241,-0.065 12.059,0.132c3.145,0.196 6.16,0.327 9.24,1.114c0.59,0.918 0.918,1.967 1.049,3.082c-1.376,3.213 -7.799,1.508 -10.355,1.246c-4.063,-0.328 -8.061,-1.312 -11.796,-2.885z" fill="#dcd2b4"/><path d="M248.151,134.331c0.917,-3.213 7.143,-2.032 9.437,-1.967c3.932,0.131 7.865,0.197 11.731,0.328c3.932,4.196 -6.619,4.327 -7.93,4.327c-2.556,-0.065 -12.648,1.049 -13.238,-2.688z" fill="#dcd2b4"/><path d="M249.527,146.264c6.685,0.525 13.632,2.426 20.251,3.869l0.655,0.983c0.066,0.853 -0.131,1.705 -0.524,2.492c-2.425,0.262 -22.676,-4.393 -20.382,-7.344z" fill="#dcd2b4"/><path d="M249.724,153.28c0.655,-2.885 15.597,3.147 17.957,3.934l0.459,1.312c-1.049,4.327 -16.581,-2.558 -18.416,-5.246z" fill="#dcd2b4"/><path d="M267.943,146.855c0.328,-3.41 0.655,-6.295 0.262,-8.59c-0.197,-1.77 -0.786,-3.409 -1.638,-4.917l3.08,0.065c1.9,2.951 2.228,12.392 1.114,18.162c-1.114,5.508 -3.211,7.803 -3.211,7.803l-3.015,-0.066c0.459,-1.508 3.08,-8.458 3.408,-12.457z" fill="#dcd2b4"/></g></g></g></svg>